<?xml version="1.0" standalone="no"?>
<!DOCTYPE svg PUBLIC "-//W3C//DTD SVG 20010904//EN"
 "http://www.w3.org/TR/2001/REC-SVG-20010904/DTD/svg10.dtd">
<svg version="1.0" xmlns="http://www.w3.org/2000/svg"
 width="300.000000pt" height="92.000000pt" viewBox="0 0 300.000000 92.000000"
 preserveAspectRatio="xMidYMid meet">
<metadata>
Created by potrace 1.10, written by Peter Selinger 2001-2011
</metadata>
<g transform="translate(0.000000,92.000000) scale(0.100000,-0.100000)"
fill="#000000" stroke="none">
<path d="M293 787 c-90 -50 -170 -102 -179 -115 -13 -19 -15 -54 -14 -212 0
-113 5 -200 11 -214 6 -13 39 -39 73 -58 33 -19 106 -61 161 -93 62 -36 111
-58 130 -58 37 0 318 160 358 204 26 29 30 30 46 15 25 -23 84 -21 106 4 13
14 18 39 20 92 1 40 3 94 3 119 2 37 6 48 21 52 37 9 43 -6 47 -129 5 -130 12
-149 65 -156 16 -3 39 2 50 10 17 12 25 12 52 0 34 -14 165 -18 207 -6 17 5
33 23 48 53 21 44 42 52 42 17 0 -9 12 -29 27 -44 22 -24 35 -28 78 -28 28 0
56 5 63 12 9 9 15 9 24 0 7 -7 28 -12 48 -12 55 0 73 26 79 113 l6 72 30 0
c32 0 32 1 34 -81 1 -41 6 -56 28 -78 26 -26 30 -27 137 -26 61 0 122 1 136 0
49 0 59 24 62 159 l2 123 -32 29 c-32 28 -35 29 -147 29 -66 0 -125 -5 -140
-12 -19 -9 -28 -9 -37 0 -19 19 -154 15 -188 -4 -27 -17 -28 -16 -69 25 -53
53 -89 55 -128 7 -23 -29 -30 -33 -46 -24 -12 6 -70 9 -147 6 l-128 -4 -11 32
c-23 63 -39 69 -182 69 -118 0 -130 -2 -150 -21 l-21 -22 -42 42 c-44 46 -319
206 -352 206 -10 0 -92 -42 -181 -93z m352 -35 l170 -98 3 -196 2 -196 -167
-97 c-93 -54 -172 -98 -178 -98 -5 0 -85 44 -178 98 l-167 97 2 196 3 196 165
97 c91 53 167 97 170 98 3 1 82 -43 175 -97z m529 -128 c13 -13 16 -44 16
-185 l0 -169 -40 0 -40 0 0 150 0 150 -70 0 -70 0 0 -150 0 -150 -40 0 -40 0
0 169 c0 141 3 172 16 185 23 23 245 23 268 0z m476 -59 c0 -20 5 -25 24 -25
23 0 24 -2 13 -35 -6 -19 -16 -35 -24 -35 -9 0 -13 -17 -13 -60 0 -57 1 -60
25 -60 23 0 25 -4 25 -40 l0 -40 -43 0 c-78 0 -81 7 -82 174 l0 146 38 0 c33
0 37 -3 37 -25z m-130 -44 c5 -11 10 -42 10 -70 0 -72 -13 -81 -116 -81 l-84
0 0 35 0 34 62 3 c38 2 63 8 66 16 3 9 -16 12 -72 12 l-76 0 0 -60 0 -60 86 0
c75 0 85 -2 80 -16 -3 -9 -9 -27 -12 -40 -6 -23 -9 -24 -100 -24 -128 0 -134
6 -134 136 0 138 -5 134 150 134 118 0 130 -2 140 -19z m415 2 c-4 -10 -10
-26 -12 -35 -4 -14 -16 -18 -54 -18 l-49 0 0 -100 0 -100 -37 0 -38 0 2 125
c1 69 5 130 8 135 3 6 47 10 97 10 82 0 89 -2 83 -17z m315 -2 c5 -11 10 -72
10 -135 l0 -116 -40 0 -40 0 0 100 0 100 -70 0 -70 0 0 -60 0 -60 61 0 c52 0
60 -2 55 -16 -3 -9 -9 -27 -12 -40 -6 -22 -11 -24 -75 -24 -100 0 -109 12
-109 136 0 138 -5 134 150 134 118 0 130 -2 140 -19z m-112 -113 c3 -13 -3
-18 -22 -18 -27 0 -41 14 -31 31 10 16 49 6 53 -13z" stroke="black" fill="white"/>
<path d="M317 722 c-142 -84 -140 -79 -52 -126 l32 -18 82 47 81 48 0 63 c0
35 -3 64 -7 63 -5 -1 -66 -35 -136 -77z m93 -22 c-12 -23 -89 -70 -113 -70
-35 0 -15 27 46 62 65 38 84 40 67 8z" stroke="black" fill="white"/>
<path d="M490 737 l0 -64 80 -47 80 -46 38 19 c85 44 87 39 -54 122 -71 41
-132 76 -136 77 -5 2 -8 -25 -8 -61z m171 -79 c23 -15 23 -17 5 -24 -34 -13
-147 60 -131 85 6 10 62 -17 126 -61z" stroke="black" fill="white"/>
<path d="M397 598 l-68 -41 68 -38 c37 -21 71 -38 75 -39 4 0 39 17 78 39 l71
38 -71 42 c-40 22 -75 41 -78 41 -4 -1 -38 -19 -75 -42z m119 -23 c19 -15 19
-15 0 -30 -11 -8 -29 -15 -41 -15 -12 0 -30 7 -41 15 -19 15 -19 15 0 30 11 8
29 15 41 15 12 0 30 -7 41 -15z" stroke="black" fill="white"/>
<path d="M168 455 c-2 -85 -2 -155 0 -155 1 0 27 14 57 31 l55 31 0 93 0 93
-50 31 c-28 17 -52 31 -55 31 -2 0 -5 -70 -7 -155z m67 62 c4 -13 5 -48 3 -78
-2 -39 -7 -54 -18 -54 -11 0 -15 16 -16 70 -1 39 0 73 3 78 8 14 23 7 28 -16z" stroke="black" fill="white"/>
<path d="M717 578 l-48 -30 3 -94 3 -94 53 -30 52 -30 0 155 c0 85 -3 155 -7
154 -5 0 -30 -14 -56 -31z m25 -123 c3 -60 1 -70 -14 -73 -19 -4 -22 12 -18
88 4 96 27 86 32 -15z" stroke="black" fill="white"/>
<path d="M310 447 c0 -77 2 -85 23 -95 12 -6 46 -25 75 -42 l52 -30 0 83 0 83
-67 39 c-38 22 -71 42 -75 43 -5 2 -8 -34 -8 -81z m92 -14 c22 -20 25 -73 3
-73 -23 0 -55 37 -55 65 0 30 24 33 52 8z" stroke="black" fill="white"/>
<path d="M558 486 l-68 -41 0 -83 0 -82 53 30 c28 17 62 36 75 42 20 10 22 18
22 95 0 45 -3 83 -7 82 -5 -1 -38 -20 -75 -43z m40 -59 c5 -26 -25 -67 -48
-67 -15 0 -20 7 -20 27 0 50 60 85 68 40z" stroke="black" fill="white"/>
<path d="M238 302 c-26 -15 -48 -29 -48 -32 0 -3 37 -26 83 -52 45 -26 106
-61 135 -78 l53 -31 -3 68 -3 67 -75 43 c-41 23 -79 42 -85 42 -5 0 -31 -12
-57 -27z m128 -49 c40 -21 61 -49 49 -62 -7 -6 -133 58 -142 73 -8 12 18 25
36 17 9 -3 35 -16 57 -28z" stroke="black" fill="white"/>
<path d="M570 287 l-75 -43 -3 -68 -3 -68 43 26 c24 15 85 50 135 79 51 28 93
54 93 57 0 6 -97 60 -108 60 -4 0 -41 -19 -82 -43z m100 -20 c0 -13 -108 -77
-129 -77 -34 0 3 41 71 77 41 22 58 22 58 0z" stroke="black" fill="white"/>
<path d="M2503 669 c-56 -16 -62 -36 -63 -217 -2 -134 1 -167 14 -187 17 -26
24 -29 66 -25 33 3 48 16 65 57 18 42 51 45 66 6 17 -46 39 -63 79 -63 20 0
41 5 48 12 9 9 15 9 24 0 19 -19 82 -15 103 8 15 16 18 44 22 190 l4 171 -30
29 c-33 34 -56 37 -89 14 -21 -14 -27 -14 -60 -1 -42 17 -199 21 -249 6z m251
-45 c13 -13 16 -44 16 -185 l0 -169 -41 0 -41 0 4 50 3 50 -72 0 -73 0 0 -50
0 -50 -41 0 -40 0 3 175 c2 143 6 178 18 185 8 5 68 10 132 10 93 0 120 -3
132 -16z m136 -169 l0 -185 -37 0 -38 0 0 185 0 185 38 0 37 0 0 -185z" stroke="black" fill="white"/>
<path d="M2550 505 l0 -65 68 0 c38 0 71 2 73 4 2 2 2 32 1 65 l-4 61 -69 0
-69 0 0 -65z m89 -11 c-14 -17 -19 -17 -39 -4 -13 9 -12 12 4 25 25 19 53 1
35 -21z" stroke="black" fill="white"/>
</g>
</svg>
