<?xml version="1.0" standalone="no"?>
<!DOCTYPE svg PUBLIC "-//W3C//DTD SVG 20010904//EN"
 "http://www.w3.org/TR/2001/REC-SVG-20010904/DTD/svg10.dtd">
<svg version="1.0" xmlns="http://www.w3.org/2000/svg"
 width="300.000000pt" height="289.000000pt" viewBox="0 0 300.000000 289.000000"
 preserveAspectRatio="xMidYMid meet">
<metadata>
Created by potrace 1.10, written by Peter Selinger 2001-2011
</metadata>
<g transform="translate(0.000000,289.000000) scale(0.100000,-0.100000)"
fill="#000000" stroke="none">
<path d="M1632 2830 c-12 -5 -129 -71 -259 -146 -130 -75 -374 -215 -542 -311
-168 -96 -314 -182 -325 -192 -46 -39 -46 -44 -46 -704 0 -344 3 -639 6 -656
4 -18 19 -44 34 -59 15 -15 274 -169 576 -342 393 -225 560 -316 587 -318 30
-3 53 5 125 46 821 470 1022 587 1048 615 l31 33 7 335 c3 184 4 485 0 669 -6
303 -9 338 -25 361 -11 16 -114 81 -249 159 -126 72 -232 136 -235 141 -4 5
-12 9 -19 9 -13 0 -155 78 -166 90 -6 7 -135 80 -147 83 -12 3 -166 95 -181
108 -23 19 -166 89 -182 88 -8 0 -25 -4 -38 -9z m301 -174 c707 -405 883 -508
895 -523 9 -13 12 -163 12 -668 l0 -652 -22 -20 c-13 -11 -239 -144 -503 -296
-264 -151 -512 -293 -551 -316 -39 -22 -81 -41 -94 -41 -13 0 -118 55 -234
121 -116 67 -368 212 -561 322 -192 110 -356 207 -363 215 -9 12 -12 162 -12
672 0 613 1 658 18 672 9 9 145 89 302 179 157 89 409 234 560 320 151 87 281
159 288 159 8 0 127 -65 265 -144z"/>
<path d="M1580 2631 c-14 -10 -222 -131 -463 -269 -241 -138 -439 -253 -440
-256 -1 -3 85 -55 191 -115 l193 -110 274 157 274 157 1 205 c0 113 3 215 6
228 8 27 -3 28 -36 3z m-10 -233 c0 -90 -4 -168 -8 -174 -4 -6 -118 -75 -254
-154 l-247 -142 -146 83 c-80 46 -145 88 -145 94 0 6 53 42 118 79 64 37 149
85 187 108 39 22 95 54 125 71 30 17 118 68 195 113 77 45 148 83 158 83 15 1
17 -13 17 -161z"/>
<path d="M1727 2423 l2 -226 38 -22 c21 -12 145 -83 275 -158 l236 -136 109
62 c59 35 148 85 197 112 65 35 86 51 75 57 -8 5 -115 66 -239 136 -371 211
-633 363 -662 383 -15 10 -28 19 -30 19 -2 0 -2 -102 -1 -227z m128 97 c4 -6
11 -8 16 -5 5 4 21 -3 37 -13 15 -11 50 -32 77 -47 28 -15 59 -36 71 -46 11
-11 25 -19 32 -19 16 0 82 -32 82 -40 0 -4 90 -58 200 -120 110 -63 200 -119
200 -125 0 -5 -26 -25 -57 -43 -32 -18 -76 -43 -98 -56 -22 -12 -62 -35 -89
-49 l-50 -27 -60 35 c-34 18 -146 83 -251 143 l-190 110 -3 176 -2 177 39 -21
c22 -11 43 -24 46 -30z"/>
<path d="M1412 1957 l-244 -141 29 -14 c15 -8 128 -73 251 -144 l223 -129 57
35 c31 19 143 84 249 144 l192 110 -147 83 c-81 46 -191 109 -245 141 -54 32
-104 57 -110 57 -7 -1 -121 -65 -255 -142z m464 -18 c107 -62 193 -117 191
-123 -2 -6 -92 -62 -200 -125 l-197 -113 -163 93 c-214 123 -239 138 -235 149
4 13 379 230 396 230 8 0 101 -50 208 -111z"/>
<path d="M610 1465 l0 -547 28 18 c15 10 105 62 200 117 l172 99 -2 316 -3
317 -135 78 c-74 43 -160 92 -190 110 -30 17 -58 33 -62 35 -5 2 -8 -242 -8
-543z m166 405 c46 -27 87 -50 90 -50 3 0 25 -14 50 -31 l44 -30 -2 -296 -3
-296 -135 -78 c-74 -43 -140 -79 -147 -79 -6 0 -13 8 -15 17 -2 9 -2 216 0
461 2 392 4 443 18 438 8 -3 53 -28 100 -56z"/>
<path d="M2696 1995 c-11 -8 -98 -59 -193 -113 l-173 -97 0 -316 0 -317 178
-102 c97 -57 187 -110 200 -118 l22 -14 0 546 c0 300 -3 546 -7 546 -5 0 -17
-7 -27 -15z m-16 -525 c0 -329 -3 -460 -11 -460 -23 0 -280 154 -291 174 -17
32 -3 565 15 584 16 15 268 161 280 162 4 0 7 -207 7 -460z"/>
<path d="M1113 1699 c4 -13 7 -143 7 -289 l1 -265 211 -120 c116 -65 226 -129
245 -142 18 -12 33 -19 33 -15 1 4 1 133 1 287 l0 280 -238 138 c-281 164
-268 158 -260 126z m262 -172 l190 -112 3 -233 c2 -182 0 -232 -10 -232 -7 0
-98 49 -203 109 l-190 108 -3 237 c-2 186 0 236 10 235 7 0 99 -51 203 -112z"/>
<path d="M2193 1709 c-6 -6 -113 -70 -238 -143 l-226 -131 -2 -288 c-1 -158
-1 -287 0 -287 1 0 17 10 36 23 18 12 129 77 245 142 l211 120 1 288 c0 158
-4 287 -8 287 -4 0 -13 -5 -19 -11z m-13 -303 l0 -235 -202 -115 c-111 -63
-204 -114 -206 -112 -9 9 -1 461 9 471 16 16 373 223 387 224 9 1 12 -52 12
-233z"/>
<path d="M867 944 c-98 -56 -184 -105 -190 -108 -8 -4 -9 -8 -1 -11 23 -11
798 -458 861 -495 36 -22 68 -40 72 -40 9 0 3 442 -6 451 -16 16 -538 309
-548 308 -5 -1 -90 -48 -188 -105z m436 -75 c127 -73 240 -139 250 -147 15
-13 17 -36 17 -184 0 -128 -3 -168 -12 -167 -25 1 -783 445 -783 458 0 13 259
170 283 170 7 1 117 -58 245 -130z"/>
<path d="M2019 907 c-135 -78 -255 -149 -267 -157 -22 -15 -22 -21 -25 -238
-1 -130 2 -222 7 -222 5 0 17 6 25 13 20 17 880 511 905 520 15 6 17 5 -124
82 -69 37 -154 85 -189 107 -34 21 -68 38 -75 37 -6 0 -122 -65 -257 -142z
m408 14 c76 -44 138 -85 138 -92 0 -10 -375 -233 -625 -372 -30 -17 -80 -45
-110 -63 l-55 -32 -3 171 c-2 134 0 174 11 185 19 19 479 281 494 282 7 0 74
-36 150 -79z"/>
</g>
</svg>
