<?xml version="1.0" standalone="no"?>
<!DOCTYPE svg PUBLIC "-//W3C//DTD SVG 20010904//EN"
 "http://www.w3.org/TR/2001/REC-SVG-20010904/DTD/svg10.dtd">
<svg version="1.0" xmlns="http://www.w3.org/2000/svg"
 width="300.000000pt" height="289.000000pt" viewBox="0 0 300.000000 289.000000"
 preserveAspectRatio="xMidYMid meet">
<metadata>
Created by potrace 1.10, written by Peter Selinger 2001-2011
</metadata>
<g transform="translate(0.000000,289.000000) scale(0.050000,-0.050000)"
fill="#000000" stroke="none">
<path d="M0 2890 l0 -2890 3000 0 3000 0 0 2890 0 2890 -3000 0 -3000 0 0
-2890z m4116 2277 c415 -239 930 -535 1144 -658 l390 -224 5 -1339 c5 -1257 3
-1341 -30 -1369 -83 -70 -2249 -1297 -2290 -1297 -25 0 -76 19 -115 43 -38 23
-533 308 -1100 632 -566 324 -1050 611 -1075 638 l-45 49 1 1284 c1 706 9
1302 17 1323 15 39 2263 1348 2318 1350 14 1 365 -194 780 -432z"/>
<path d="M2770 5036 c-231 -134 -640 -370 -909 -525 -269 -154 -491 -290 -494
-301 -3 -11 166 -117 375 -236 l380 -215 549 315 549 316 0 445 c0 245 -7 445
-15 444 -8 0 -204 -110 -435 -243z"/>
<path d="M3440 4855 c0 -234 7 -435 15 -448 8 -12 260 -163 559 -336 l543
-314 375 217 c207 119 375 225 375 236 0 11 -202 136 -449 278 -246 141 -657
377 -912 525 -255 147 -473 267 -485 267 -14 0 -21 -137 -21 -425z"/>
<path d="M2835 3924 c-261 -151 -472 -282 -469 -291 3 -9 223 -142 489 -296
l484 -279 490 283 c270 155 491 289 490 296 0 18 -937 552 -977 557 -18 2
-246 -119 -507 -270z"/>
<path d="M1220 2930 c0 -588 7 -1070 15 -1070 8 0 186 98 395 217 l380 218 5
631 6 631 -56 38 c-99 69 -699 405 -722 405 -17 0 -23 -288 -23 -1070z"/>
<path d="M5060 3799 c-191 -110 -360 -211 -374 -223 -21 -17 -25 -151 -21
-651 l5 -630 376 -218 c207 -119 385 -217 395 -217 12 0 19 415 19 1070 0 855
-5 1070 -26 1070 -14 0 -182 -90 -374 -201z"/>
<path d="M2240 2866 l0 -576 472 -270 c260 -148 481 -273 491 -277 10 -4 15
234 12 567 l-5 575 -380 218 c-209 121 -427 246 -485 280 l-105 60 0 -577z"/>
<path d="M3960 3168 c-258 -150 -481 -281 -495 -292 -30 -25 -37 -1106 -7
-1125 10 -6 235 113 500 264 l482 275 0 575 c0 316 -2 575 -5 575 -3 -1 -216
-123 -475 -272z"/>
<path d="M1730 1888 c-198 -114 -363 -216 -366 -225 -3 -10 321 -206 720 -435
399 -229 816 -468 926 -531 l200 -115 5 443 c5 338 0 448 -20 466 -46 43
-1054 609 -1080 607 -14 -1 -187 -95 -385 -210z"/>
<path d="M4017 1803 c-282 -162 -528 -307 -545 -321 -35 -29 -50 -868 -16
-889 21 -14 1854 1041 1854 1067 0 22 -723 441 -759 439 -11 -1 -252 -134
-534 -296z"/>
</g>
</svg>
