<?xml version="1.0" standalone="no"?>
<!DOCTYPE svg PUBLIC "-//W3C//DTD SVG 20010904//EN"
 "http://www.w3.org/TR/2001/REC-SVG-20010904/DTD/svg10.dtd">
<svg version="1.0" xmlns="http://www.w3.org/2000/svg"
 width="300.000000pt" height="83.000000pt" viewBox="0 0 300.000000 83.000000"
 preserveAspectRatio="xMidYMid meet">
<metadata>
Created by potrace 1.10, written by Peter Selinger 2001-2011
</metadata>
<g transform="translate(0.000000,83.000000) scale(0.100000,-0.100000)"
fill="#000000" stroke="none">
<path d="M121 687 c-69 -25 -72 -34 -72 -302 1 -233 1 -241 22 -257 13 -11 38
-18 65 -18 56 0 84 25 84 77 1 21 1 97 2 168 0 72 4 137 9 146 9 17 85 25 107
11 9 -7 13 -52 13 -180 0 -156 2 -173 20 -196 27 -34 97 -36 140 -6 l28 21 28
-20 c27 -20 87 -25 264 -22 47 1 83 37 98 96 7 29 21 50 41 65 l30 21 0 -41
c0 -51 21 -103 51 -124 32 -22 146 -22 170 0 17 15 20 15 43 0 14 -9 45 -16
69 -16 70 0 81 20 87 153 l5 112 45 6 c25 3 52 8 60 10 12 3 16 -15 20 -109 5
-113 5 -114 38 -143 31 -28 36 -29 134 -29 80 0 105 3 120 17 17 15 19 15 36
0 12 -11 36 -17 69 -17 78 0 83 12 83 218 l0 168 -31 30 -30 29 -170 3 c-143
3 -174 1 -195 -13 -22 -14 -26 -14 -49 1 -19 13 -46 15 -139 12 -105 -3 -117
-5 -140 -27 l-26 -25 -59 62 c-64 68 -93 77 -150 47 -31 -15 -41 -33 -41 -71
0 -29 -7 -30 -33 -6 -16 14 -44 17 -189 20 -156 3 -172 2 -204 -17 -19 -12
-36 -21 -38 -21 -1 0 -3 21 -5 46 -6 115 -29 128 -226 131 -100 2 -161 -1
-184 -10z m352 -45 c14 -15 16 -51 17 -257 l1 -240 -50 -2 -51 -2 0 210 0 210
-101 -3 -101 -3 2 -207 1 -207 -56 0 -56 0 3 246 c3 229 4 246 22 259 15 11
58 14 186 14 148 0 169 -2 183 -18z m667 -87 c0 -33 2 -35 35 -35 19 0 35 -1
35 -3 0 -2 -7 -24 -16 -50 -11 -34 -21 -47 -35 -47 -17 0 -19 -8 -19 -85 l0
-85 35 0 35 0 0 -54 0 -55 -52 4 c-29 2 -61 4 -70 5 -9 0 -24 7 -32 16 -14 13
-16 47 -16 220 l0 204 50 0 50 0 0 -35z m395 -84 l-17 -51 -69 0 -69 0 0 -139
0 -139 -50 0 -50 0 0 172 c0 94 5 178 10 186 7 12 38 16 132 20 68 3 125 4
127 3 1 -1 -5 -24 -14 -52z m-583 32 c15 -13 18 -32 18 -104 0 -116 -4 -119
-157 -119 l-113 0 0 54 0 54 85 -6 c82 -5 85 -4 85 17 0 20 -4 21 -105 21
l-105 0 0 -85 0 -85 120 0 c66 0 120 -4 120 -8 0 -5 -7 -28 -15 -53 l-15 -44
-137 3 c-182 3 -173 -6 -173 181 0 204 -13 191 202 191 145 0 174 -3 190 -17z
m1024 3 c17 -13 19 -30 22 -189 l3 -174 -55 0 -56 0 0 138 0 139 -100 0 -100
0 0 -85 0 -85 85 0 c47 0 85 -1 85 -2 0 -2 -8 -25 -18 -53 l-18 -50 -103 2
c-61 1 -108 7 -117 14 -11 9 -14 46 -14 175 0 145 2 164 18 173 28 17 344 14
368 -3z m-736 -151 c0 -47 -3 -85 -8 -85 -26 0 -52 34 -52 67 0 34 35 103 53
103 4 0 7 -38 7 -85z m608 -22 l3 -43 -60 0 -61 0 0 38 c0 21 3 42 7 46 4 4
30 6 58 4 l50 -3 3 -42z" stroke="black" fill="white"/> 
<path d="M2351 691 c-18 -5 -45 -21 -60 -35 l-26 -26 3 -243 c2 -232 3 -243
23 -260 13 -10 38 -17 65 -17 54 0 84 26 84 72 0 52 10 60 71 56 l54 -3 6 -42
c8 -61 32 -83 89 -83 30 0 52 6 60 15 16 19 34 19 50 0 19 -23 105 -20 130 5
19 19 20 33 20 274 l0 255 -26 20 c-39 31 -97 28 -127 -5 l-25 -26 -32 23
c-29 22 -41 24 -178 26 -81 1 -162 -2 -181 -6z m337 -47 c22 -15 22 -18 22
-258 l0 -244 -50 0 -50 0 0 69 0 69 -103 0 -103 0 4 -69 4 -69 -56 0 -56 1 0
238 c0 226 1 240 20 259 18 18 33 20 183 20 131 0 167 -3 185 -16z m195 -241
l-2 -258 -51 -2 -50 -2 0 260 0 259 53 0 52 0 -2 -257z" stroke="black" fill="white"/>
<path d="M2409 555 c0 -3 -1 -41 -1 -86 l-1 -81 102 -1 101 -2 0 88 0 87 -100
0 c-55 0 -100 -2 -101 -5z m149 -47 c7 -7 12 -27 12 -45 l0 -33 -59 0 c-59 0
-71 7 -71 45 0 38 88 63 118 33z" stroke="black" fill="white"/>
</g>
</svg>
